<?xml version="1.0" encoding="UTF-8"?>
<!DOCTYPE svg PUBLIC "-//W3C//DTD SVG 1.1//EN" "http://www.w3.org/Graphics/SVG/1.1/DTD/svg11.dtd">
<!-- Creator: CorelDRAW 2019 (64-Bit) -->
<svg xmlns="http://www.w3.org/2000/svg" xml:space="preserve" width="417px" height="417px" version="1.1" style="shape-rendering:geometricPrecision; text-rendering:geometricPrecision; image-rendering:optimizeQuality; fill-rule:evenodd; clip-rule:evenodd"
viewBox="0 0 417 417"
 xmlns:xlink="http://www.w3.org/1999/xlink"
 xmlns:xodm="http://www.corel.com/coreldraw/odm/2003">
 <defs>
  <style type="text/css">
   <![CDATA[
    .fil3 {fill:#E50511}
    .fil2 {fill:black}
    .fil0 {fill:#F5FAF7;fill-rule:nonzero}
    .fil1 {fill:black;fill-rule:nonzero}
   ]]>
  </style>
 </defs>
 <g id="Слой_x0020_1">
  <metadata id="CorelCorpID_0Corel-Layer"/>
  <path class="fil0" d="M208.5 417c-115.16,0 -208.5,-93.35 -208.5,-208.5 0,-115.15 93.34,-208.5 208.5,-208.5 115.15,0 208.5,93.35 208.5,208.5 0,115.15 -93.35,208.5 -208.5,208.5z"/>
  <path class="fil1" d="M333.31 333.57c-5.15,2.31 -9.52,3.88 -13.09,4.68 -3.57,0.85 -7.83,1.25 -12.73,1.25 -11.19,0 -20.35,-3.52 -27.48,-10.56 -7.11,-7.02 -10.66,-16.07 -10.66,-27.13 0,-12.01 3.9,-21.82 11.7,-29.47 7.79,-7.64 17.8,-11.46 30.02,-11.46 3.44,0 6.51,0.17 9.2,0.52 2.69,0.34 6.61,1.05 11.77,2.11l0 19.79c-3.88,-2.75 -7.37,-4.66 -10.46,-5.73 -3.07,-1.07 -6.62,-1.61 -10.65,-1.61 -5.84,0 -10.61,2.18 -14.33,6.55 -3.71,4.37 -5.57,9.96 -5.57,16.8 0,7.73 1.79,13.86 5.37,18.37 3.6,4.54 8.43,6.79 14.53,6.79 4.31,0 8.2,-0.81 11.65,-2.45 3.46,-1.64 7.03,-4.38 10.73,-8.19l0 19.74zm-103.09 -37.81l0.68 0c3.53,0 6.43,-1.01 8.68,-3.02 2.24,-2.01 3.38,-4.61 3.38,-7.77 0,-2.83 -1.05,-5.13 -3.16,-6.91 -2.11,-1.78 -4.82,-2.67 -8.13,-2.67l-1.45 0 0 20.37zm-20.1 26.37l0 -44.13c0,-3.49 -0.2,-6.46 -0.61,-8.85 -0.4,-2.4 -1.08,-4.77 -2.06,-7.15l26.22 0c9.2,0 16.31,2.04 21.3,6.12 5,4.09 7.5,9.92 7.5,17.48 0,7.24 -2.76,12.96 -8.29,17.2 -5.53,4.24 -13,6.35 -22.4,6.35l-1.56 0 0 12.98c0,3.51 0.2,6.47 0.61,8.85 0.4,2.42 1.08,4.79 2.06,7.16l-25.44 0c0.98,-2.37 1.68,-4.74 2.09,-7.16 0.38,-2.38 0.58,-5.34 0.58,-8.85zm-33.36 0c-1.46,3.41 -2.49,6.31 -3.09,8.72 -0.61,2.39 -0.91,4.83 -0.91,7.29l-26.08 0c1.57,-1.57 3.05,-3.54 4.46,-5.94 3.02,-5.16 5.29,-11.04 7.6,-16.59l0 0.06 -16.19 -37.67c-1.19,-2.81 -2.56,-5.42 -4.08,-7.83 -1.53,-2.39 -3.56,-5.11 -6.08,-8.17l28.11 0c-0.2,1.84 -0.23,3.44 -0.1,4.75 0.13,1.31 0.46,2.65 0.98,4.05l7.46 20.55 8.54 -20.55c0.64,-1.54 1.07,-2.98 1.29,-4.29 0.2,-1.32 0.25,-2.81 0.12,-4.51l25.02 0c-1.38,1.72 -2.7,3.78 -4,6.18 -1.29,2.41 -2.84,5.67 -4.62,9.82l-18.43 44.13zm-87.04 0c0,3.51 0.2,6.47 0.62,8.85 0.4,2.42 1.08,4.79 2.06,7.16l-25.44 0c0.97,-2.37 1.66,-4.74 2.05,-7.16 0.42,-2.38 0.62,-5.34 0.62,-8.85l0 -44.13c0,-3.49 -0.2,-6.46 -0.62,-8.85 -0.39,-2.4 -1.08,-4.77 -2.05,-7.15l25.44 0c-0.98,2.38 -1.66,4.75 -2.06,7.15 -0.42,2.39 -0.62,5.36 -0.62,8.85l0 11.94 17.54 -22.7c0.98,-1.19 1.69,-2.17 2.14,-2.94 0.47,-0.79 0.75,-1.55 0.88,-2.3l25.86 0c-1.66,1.03 -3.69,2.76 -6.11,5.17 -2.41,2.39 -5.74,6.01 -10,10.83l-16.49 18.74 19.95 25.39c3.67,4.59 6.6,8.06 8.83,10.46 2.23,2.41 4.24,4.25 6.06,5.55l-28.98 0c0.02,-0.88 -0.26,-1.91 -0.88,-3.12 -0.61,-1.19 -1.67,-2.8 -3.17,-4.85l-15.63 -22.19 0 14.15z"/>
  <path class="fil2" d="M208.39 77.5l-14.12 10.14c-5.62,4.03 -9.8,6.99 -13.96,9.92 -25.14,17.74 -49.64,35.03 -60.77,52.08 -10.6,16.25 -8.16,33.15 20.48,51.84l7.38 4.81 -84.85 52.66 5.98 -181.45 139.86 0z"/>
  <path class="fil3" d="M229.12 77.5l125.33 0 -103.14 80.43c0.19,0.28 -9.76,5.93 0.39,12.62l96.47 73.94 -126.65 0.04c-19.57,-15.72 -57.63,-42.61 -73.12,-59.36 -6.63,-7.17 -9.72,-14.76 -9.26,-22.76 0.44,-7.76 4.26,-15.56 11.45,-23.37l78.53 -61.54z"/>
 </g>
</svg>
